<svg xmlns="http://www.w3.org/2000/svg" width="555" height="555" viewBox="27.1 119.1 555 555" enable-background="new 27.1 119.1 555 555"><path fill="#E2E2E2" d="M139.2 616.9c47.1 35.9 105.2 56.8 167.6 56.8 63.8 0 121.9-20.7 169-56.8-.4-.9-.7-1.8-1.3-2.6C540.1 563 581 484.7 581 395.3c1.5-152.4-121.9-275.7-275.7-275.7-152.4 0-277 124.7-277 277 0 90 42.9 169 109.4 220.2"/><path opacity=".49" fill="#858DAA" enable-background="new" d="M346.9 514.4c49.9-16.7 85.8-63.8 85.8-120.4 0-70.6-56.8-126.1-126.1-126.1-70.6 0-126.1 56.8-126.1 126.1 0 55.4 35.9 102.5 85.8 120.4-59.6 12.5-106.7 51.3-127.4 102.5 47.1 35.9 105.2 56.8 167.6 56.8 63.8 0 121.9-20.7 169-56.8-21.9-51.1-70.5-90-128.6-102.5z"/></svg>