<?xml version="1.0" encoding="utf-8"?>
<!-- Generator: Adobe Illustrator 19.0.0, SVG Export Plug-In . SVG Version: 6.00 Build 0)  -->
<svg version="1.1" id="Layer_1" xmlns:sketch="http://www.bohemiancoding.com/sketch/ns"
	 xmlns="http://www.w3.org/2000/svg" xmlns:xlink="http://www.w3.org/1999/xlink" x="0px" y="0px" viewBox="-161 196 176 110"
	 style="enable-background:new -161 196 176 110;" xml:space="preserve">
<style type="text/css">
	.st0{fill:#40AD90;}
	.st1{fill:#8ECEBD;}
	.st2{fill:#FDFDFD;}
	.st3{fill:#FFFFFF;}
	.st4{font-family:'SourceSansPro-Light';}
	.st5{font-size:12px;}
</style>
<title>Group</title>
<desc>Created with Sketch.</desc>
<g id="Page-1" sketch:type="MSPage">
	<g id="Group" transform="translate(67.000000, 178.000000)" sketch:type="MSLayerGroup">
		<path id="Rectangle-230-Copy" sketch:type="MSShapeGroup" class="st0" d="M-225,30c-1.7,0-3,1.3-3,3v92c0,1.7,1.3,3,3,3h170
			c1.7,0,3-1.3,3-3V33c0-1.7-1.3-3-3-3h-75.1l-9.9-12l-9.9,12H-225z"/>
		<path id="Shape-Copy" sketch:type="MSShapeGroup" class="st1" d="M-154,47L-154,47v10c0,0.6,0.4,1,1,1h26c0.5,0,1-0.5,1-1V47
			c0-0.6-0.4-1-1-1h-26C-153.6,46-154,46.5-154,47L-154,47z M-155,47c0-1.1,0.9-2,2-2h26c1.1,0,2,0.9,2,2v10c0,1.1-0.9,2-2,2h-26
			c-1.1,0-2-0.9-2-2V47L-155,47z"/>
		<path id="Shape-Copy-2" sketch:type="MSShapeGroup" class="st1" d="M-154,65L-154,65v10c0,0.6,0.4,1,1,1h26c0.5,0,1-0.5,1-1V65
			c0-0.6-0.4-1-1-1h-26C-153.6,64-154,64.5-154,65L-154,65z M-155,65c0-1.1,0.9-2,2-2h26c1.1,0,2,0.9,2,2v10c0,1.1-0.9,2-2,2h-26
			c-1.1,0-2-0.9-2-2V65L-155,65z"/>
		<path id="Rectangle-231-Copy-9" sketch:type="MSShapeGroup" class="st2" d="M-187,63h26c1.1,0,2,0.9,2,2v10c0,1.1-0.9,2-2,2h-26
			c-1.1,0-2-0.9-2-2V65C-189,63.9-188.1,63-187,63z"/>
		<path id="Rectangle-231-Copy-10" sketch:type="MSShapeGroup" class="st2" d="M-119,63h26c1.1,0,2,0.9,2,2v10c0,1.1-0.9,2-2,2h-26
			c-1.1,0-2-0.9-2-2V65C-121,63.9-120.1,63-119,63z"/>
		<path id="Shape-Copy-3" sketch:type="MSShapeGroup" class="st0" d="M-174.3,72.4c0.2,0.2,0.2,0.4,0,0.6c-0.2,0.2-0.4,0.2-0.6,0
			l-2.7-2.7l-0.3-0.3l0.3-0.3l2.7-2.7c0.2-0.2,0.4-0.2,0.6,0s0.2,0.4,0,0.6l-2,2l5.4,0c0.2,0,0.4,0.2,0.4,0.4c0,0.2-0.2,0.4-0.4,0.4
			l-5.4,0L-174.3,72.4z"/>
		<path id="Shape-Copy-4" sketch:type="MSShapeGroup" class="st0" d="M-103.8,69.6l-2-2c-0.2-0.2-0.2-0.4,0-0.6
			c0.2-0.2,0.4-0.2,0.6,0l2.7,2.7l0.3,0.3l-0.3,0.3l-2.7,2.7c-0.2,0.2-0.4,0.2-0.6,0s-0.2-0.4,0-0.6l2-2l-5.4,0
			c-0.2,0-0.4-0.2-0.4-0.4c0-0.2,0.2-0.4,0.4-0.4L-103.8,69.6L-103.8,69.6z"/>
		<text transform="matrix(1 0 0 1 -214 97.4773)"><tspan x="0" y="0" class="st3 st4 st5">You can use your arrow keys to</tspan><tspan x="0" y="14.4" class="st3 st4 st5">navigate through the training</tspan></text>
	</g>
</g>
</svg>
