<svg xmlns="http://www.w3.org/2000/svg" xmlns:xlink="http://www.w3.org/1999/xlink" version="1.1" viewBox="-10 0 70 50">
    <path fill="#676EB4" stroke="#676EB4" stroke-width="2"
         d="M23 31v-1v-4l3 -3l3 -3v-3q0 -1 -1 -3l-1 -1l-5 1l-3 1l-2 -3q4 -1 8 -1t6 1.5t2 4.5l-1 3l-1 2l-3 3l-2 3l-1 3h-2zM21 37q0 -3 2 -3t2 1l1 2l-1 2h-1h-2zM25 50q-7 0 -12.5 -3.5t-9 -9t-3.5 -12.5t3.5 -12.5t9 -9t12.5 -3.5t12.5 3.5t9 9t3.5 12.5t-3.5 12.5t-9 9
         t-12.5 3.5zM25 3q-6 0 -11 3t-8 8t-3 11t3 11t8 8t11 3t11 -3t8 -8t3 -11t-3 -11t-8 -8t-11 -3z" />
 </svg>