<svg xmlns="http://www.w3.org/2000/svg" xmlns:svg="http://www.w3.org/2000/svg" id="svg2" width="106" height="78" x="0" y="0" version="1.1" viewBox="0 0 106 78"><metadata id="metadata16"/><g id="g4" fill="#555" fill-opacity="1" stroke="none" stroke-opacity="0" transform="translate(3,-963.36217)"><path id="path6" fill="#d95757" fill-opacity="1" stroke="none" stroke-opacity="0" d="m 4,968.36217 c -1.1119,0.007 -1.9959,0.97602 -2,2 l 0,56.00003 c 1e-4,1.0472 0.9528,1.9999 2,2 l 56.4062,0 c -1.4668,2.6658 -2.9262,5.32 -4.4062,8 l 42,0 c -4.7471,-8.5091 -9.3364,-16.9727 -14,-25.4375 l 0,-40.56253 c -1e-4,-1.04717 -0.9528,-1.9999 -2,-2 l -78,0 z m 2,4 74,0 0,31.37503 c -0.9987,-1.7898 -1.9861,-3.5832 -3,-5.37503 -1.641,2.92763 -3.2265,5.83423 -4.8438,8.75003 l -9.7187,-10.15628 a 2.0001999,2.0001999 0 0 0 -1.625,-0.59375 2.0001999,2.0001999 0 0 0 -1.125,0.46875 L 45.4688,1009.2684 27.5,989.04967 a 2.0001999,2.0001999 0 0 0 -1.8125,-0.65625 2.0001999,2.0001999 0 0 0 -1.125,0.59375 L 6,1008.3934 6,972.36217 Z m 40,4 c -4.3946,0 -8,3.60541 -8,8 0,4.39459 3.6054,8 8,8 4.3946,0 8,-3.60541 8,-8 0,-4.39459 -3.6054,-8 -8,-8 z m 0,4 c 2.2328,0 4,1.76717 4,4 0,2.23283 -1.7672,4 -4,4 -2.2328,0 -4,-1.76717 -4,-4 0,-2.23283 1.7672,-4 4,-4 z m -20.0625,12.96875 27.5937,31.03128 -47.5312,0 0,-10.1875 19.9375,-20.84378 z m 34.9375,7.78128 9.2188,9.6562 c -2.499,4.52 -5.0107,9.0675 -7.5,13.5938 l -3.7188,0 -10.75,-12.0938 12.75,-11.1562 z m 16.125,5.3437 14,25.9063 -28,0 14,-25.9063 z m 0,4.9063 c -1.1046,0 -2,0.8954 -2,2 l 0,10 c 0,1.1046 0.8954,2 2,2 1.1046,0 2,-0.8954 2,-2 l 0,-10 c 0,-1.1046 -0.8954,-2 -2,-2 z m 0,15 c -1.3807,0 -2.5,1.1193 -2.5,2.5 0,1.3807 1.1193,2.5 2.5,2.5 1.3807,0 2.5,-1.1193 2.5,-2.5 0,-1.3807 -1.1193,-2.5 -2.5,-2.5 z" baseline-shift="baseline" color="#000" direction="ltr" display="inline" enable-background="accumulate" overflow="visible" visibility="visible" style="text-indent:0;text-transform:none;block-progression:tb;marker:none"/></g></svg>