<svg version="1.0" xmlns="http://www.w3.org/2000/svg" width="560.000000pt" height="591.000000pt" viewBox="0 0 560.000000 591.000000" preserveAspectRatio="xMidYMid meet">
  <metadata>
    
Created by potrace 1.14, written by Peter Selinger 2001-2017

  </metadata>
  <g transform="translate(0.000000,591.000000) scale(0.100000,-0.100000)" fill="#575d99" stroke="none">
    <path d="M2605 5764c-244-24-418-57-605-114-919-283-1623-1045-1834-1986-48-212-60-332-60-594 0-255 12-379 55-575 232-1050 1054-1860 2099-2070 203-41 296-49 540-49 245 0 336 8 542 49 1054 212 1891 1049 2103 2103 41 206 49 297 49 542 0 245-8 336-49 542-225 1118-1135 1971-2275 2133-109 16-476 28-565 19zm316-914c223-69 340-329 245-543-33-75-126-169-203-205-51-24-70-27-163-27-93 0-111 3-163 27-185 87-278 292-219 484 66 213 291 331 503 264zm181-2202l3-1023 27-51c15-29 44-66 65-83 36-30 143-71 184-71 17 0 19-8 19-75l0-75-600 0-600 0 0 74 0 74 43 6c101 15 187 79 229 171l23 50 3 804 2 805-25 53c-34 68-127 152-210 189l-64 29-1 73 0 72 450 0 450 0 2-1022z"/>
  </g>
</svg>
