<svg xmlns:dc="http://purl.org/dc/elements/1.1/" xmlns:cc="http://creativecommons.org/ns#" xmlns:rdf="http://www.w3.org/1999/02/22-rdf-syntax-ns#" xmlns:svg="http://www.w3.org/2000/svg" xmlns="http://www.w3.org/2000/svg" xmlns:sodipodi="http://sodipodi.sourceforge.net/DTD/sodipodi-0.dtd" xmlns:inkscape="http://www.inkscape.org/namespaces/inkscape" viewBox="0 0 18 18" version="1.1" x="0px" y="0px" id="svg18" sodipodi:docname="noun_875785_cc thinner.svg" inkscape:version="0.92.1 r15371">
  <metadata id="metadata24">
    <rdf:RDF>
      <cc:Work rdf:about="">
        <dc:format>
          image/svg+xml
        </dc:format>
        <dc:type rdf:resource="http://purl.org/dc/dcmitype/StillImage"/>
        <dc:title>
          Info
        </dc:title>
      </cc:Work>
    </rdf:RDF>
  </metadata>
  <defs id="defs22"/>
  <sodipodi:namedview pagecolor="#ffffff" bordercolor="#666666" borderopacity="1" objecttolerance="10" gridtolerance="10" guidetolerance="10" inkscape:pageopacity="0" inkscape:pageshadow="2" inkscape:window-width="2560" inkscape:window-height="1381" id="namedview20" showgrid="false" inkscape:zoom="29.667058" inkscape:cx="9.190678" inkscape:cy="7.2051095" inkscape:window-x="0" inkscape:window-y="26" inkscape:window-maximized="1" inkscape:current-layer="svg18"/>
  <title id="title2">
    Info
  </title>
  <desc id="desc4">
    Created with Sketch.
  </desc>
  <g stroke="none" stroke-width="1" fill="none" fill-rule="evenodd" id="g12">
    <g transform="translate(-116.000000, -271.000000)" fill-rule="nonzero" fill="#575d99" id="g10" style="stroke-dasharray:none;stroke-miterlimit:4;stroke-width:30">
      <g transform="translate(116.000000, 271.000000)" id="g8" style="stroke-dasharray:none;stroke-miterlimit:4;stroke-width:500">
        <path d="m1 9c0 3.866671 4.1335917 8 8 8 3.866671 0 8-4.133592 8-8C17 5.1333289 12.866408 1 9 1 5.1333289 1 1 5.1335917 1 9ZM0 9C0 4.0294373 4.0283444 0 9 0c4.970563 0 9 4.0283444 9 9 0 4.970563-4.028344 9-9 9C4.0294372 18 0 13.971656 0 9ZM8 8.0029293V12.997071C8 13.562119 8.4477153 14 9 14c0.5561352 0 1-0.449027 1-1.002929V8.0029293C10 7.4378813 9.5522848 7 9 7 8.4438648 7 8 7.4490268 8 8.0029293ZM8 5C8 5.5561352 8.4477153 6 9 6 9.5561352 6 10 5.5522847 10 5 10 4.4438648 9.5522848 4 9 4 8.4438648 4 8 4.4477153 8 5Z" id="path6" inkscape:connector-curvature="0" sodipodi:nodetypes="ssssssssssssssssssssss" style="stroke-dasharray:none;stroke-miterlimit:4;stroke-width:500"/>
      </g>
    </g>
  </g>
</svg>
