<svg xmlns="http://www.w3.org/2000/svg" xmlns:svg="http://www.w3.org/2000/svg" id="svg18" x="0" y="0" version="1.1" viewBox="0 0 18 18"><metadata id="metadata24"/><title id="title2">Info</title><desc id="desc4">Created with Sketch.</desc><g id="g12" fill="none" fill-rule="evenodd" stroke="none" stroke-width="1"><g id="g10" fill="#575d99" fill-rule="nonzero" stroke-dasharray="none" stroke-miterlimit="4" stroke-width="30" transform="translate(-116.000000, -271.000000)"><g id="g8" stroke-dasharray="none" stroke-miterlimit="4" stroke-width="500" transform="translate(116.000000, 271.000000)"><path id="path6" stroke-dasharray="none" stroke-miterlimit="4" stroke-width="500" d="m1 9c0 3.866671 4.1335917 8 8 8 3.866671 0 8-4.133592 8-8C17 5.1333289 12.866408 1 9 1 5.1333289 1 1 5.1335917 1 9ZM0 9C0 4.0294373 4.0283444 0 9 0c4.970563 0 9 4.0283444 9 9 0 4.970563-4.028344 9-9 9C4.0294372 18 0 13.971656 0 9ZM8 8.0029293V12.997071C8 13.562119 8.4477153 14 9 14c0.5561352 0 1-0.449027 1-1.002929V8.0029293C10 7.4378813 9.5522848 7 9 7 8.4438648 7 8 7.4490268 8 8.0029293ZM8 5C8 5.5561352 8.4477153 6 9 6 9.5561352 6 10 5.5522847 10 5 10 4.4438648 9.5522848 4 9 4 8.4438648 4 8 4.4477153 8 5Z"/></g></g></g></svg>