<svg version="1.0" xmlns="http://www.w3.org/2000/svg" width="560.000000pt" height="468.000000pt" viewBox="0 0 560.000000 468.000000" preserveAspectRatio="xMidYMid meet">
  <metadata>
    
Created by potrace 1.14, written by Peter Selinger 2001-2017

  </metadata>
  <g transform="translate(0.000000,468.000000) scale(0.100000,-0.100000)" fill="#575d99" stroke="none">
    <path d="M2620 4530c-154-40-300-133-399-253-38-46-1672-2849-1741-2985-61-123-78-327-40-478 56-220 198-398 395-495 164-80-4-74 1965-74 1650 0 1759 1 1820 18 255 69 443 250 531 512 21 61 24 89 24 215 0 152-13 217-68 325-29 57-1641 2839-1684 2905-95 146-270 268-444 310-110 26-256 26-359 0zm264-491c85-24 80-16 949-1515 454-782 829-1437 836-1454 15-45 14-134-3-174-19-46-72-104-120-129l-41-22-1705 0-1705 0-41 22c-48 25-101 83-120 129-17 41-18 144-2 181 7 15 383 667 835 1448 865 1492 861 1485 945 1512 44 15 124 15 172 2z"/>
    <path d="M2729 3417c-122-46-188-144-176-262 13-131 116-225 247-225 131 0 234 94 247 225 10 97-40 192-126 239-61 33-140 42-192 23z"/>
    <path d="M2729 2667c-87-33-139-85-167-166-16-45-17-1278-2-1333 16-55 69-119 123-146 100-52 214-35 292 43 78 77 76 56 73 786-3 609-4 646-22 682-54 109-194 172-297 134z"/>
  </g>
</svg>
