<?xml version="1.0" encoding="UTF-8" standalone="no"?>
<svg
   xmlns:dc="http://purl.org/dc/elements/1.1/"
   xmlns:cc="http://creativecommons.org/ns#"
   xmlns:rdf="http://www.w3.org/1999/02/22-rdf-syntax-ns#"
   xmlns:svg="http://www.w3.org/2000/svg"
   xmlns="http://www.w3.org/2000/svg"
   xmlns:sodipodi="http://sodipodi.sourceforge.net/DTD/sodipodi-0.dtd"
   xmlns:inkscape="http://www.inkscape.org/namespaces/inkscape"
   version="1.0"
   width="541.000000pt"
   height="519.000000pt"
   viewBox="0 0 541.000000 519.000000"
   preserveAspectRatio="xMidYMid meet"
   id="svg8"
   sodipodi:docname="institution.svg"
   inkscape:version="0.92.1 r15371">
  <defs
     id="defs12" />
  <sodipodi:namedview
     pagecolor="#ffffff"
     bordercolor="#666666"
     borderopacity="1"
     objecttolerance="10"
     gridtolerance="10"
     guidetolerance="10"
     inkscape:pageopacity="0"
     inkscape:pageshadow="2"
     inkscape:window-width="2560"
     inkscape:window-height="1381"
     id="namedview10"
     showgrid="false"
     inkscape:zoom="0.34104046"
     inkscape:cx="366.53107"
     inkscape:cy="346"
     inkscape:window-x="0"
     inkscape:window-y="26"
     inkscape:window-maximized="1"
     inkscape:current-layer="svg8" />
  <metadata
     id="metadata2">
Created by potrace 1.13, written by Peter Selinger 2001-2015
<rdf:RDF>
  <cc:Work
     rdf:about="">
    <dc:format>image/svg+xml</dc:format>
    <dc:type
       rdf:resource="http://purl.org/dc/dcmitype/StillImage" />
  </cc:Work>
</rdf:RDF>
</metadata>
  <g
     transform="translate(0.000000,519.000000) scale(0.100000,-0.100000)"
     fill="#000000"
     stroke="none"
     id="g6"
     style="fill:#ffffff;fill-opacity:1">
    <path
       d="M1620 3880 c-591 -341 -1083 -629 -1092 -641 -26 -31 -23 -75 7 -104 24 -25 25 -25 225 -25 l200 0 0 -939 0 -938 25 -27 24 -26 168 0 c175 1 188 3 211 47 9 16 12 264 12 952 l0 931 295 0 295 0 0 -940 0 -941 25 -24 c24 -25 27 -25 190 -25 l167 0 29 29 29 29 0 936 0 936 293 -2 292 -3 3 -942 2 -942 26 -20 c25 -19 40 -21 190 -21 158 0 164 1 191 24 l28 24 3 941 2 941 290 0 290 0 2 -941 3 -941 28 -24 c37 -31 81 -31 112 1 l25 24 0 999 0 999 -26 24 -26 24 -381 3 c-210 2 -397 0 -415 -3 -17 -3 -41 -16 -52 -27 -20 -21 -20 -36 -20 -960 l0 -938 -50 0 -50 0 0 913 c0 601 -4 925 -11 949 -19 69 -18 69 -470 66 l-401 -3 -24 -28 -24 -28 0 -935 0 -934 -50 0 -50 0 0 924 c0 565 -4 935 -10 950 -21 55 -34 57 -471 54 l-401 -3 -24 -28 -24 -28 0 -935 0 -934 -50 0 -50 0 0 934 0 935 -24 27 c-21 25 -32 28 -101 33 l-79 6 890 512 c489 281 894 513 900 515 6 2 414 -229 906 -512 l895 -515 -71 -5 c-39 -3 -81 -11 -93 -18 -46 -26 -46 -20 -38 -1149 l7 -1063 -1736 0 c-1461 0 -1742 -2 -1770 -14 -46 -19 -56 -55 -56 -202 l0 -124 -304 0 -304 0 -31 -26 -31 -26 0 -204 c0 -204 0 -205 25 -229 l24 -25 2561 0 2561 0 24 25 c25 24 25 25 25 229 l0 204 -31 26 -31 26 -2049 -2 c-2035 -3 -2049 -3 -2068 -23 -35 -34 -37 -77 -6 -113 l27 -32 1994 0 1994 0 0 -85 0 -85 -2440 0 -2440 0 0 85 0 85 309 0 c289 0 310 1 332 19 23 18 24 27 29 168 l5 148 1749 3 1750 2 23 22 23 21 2 1091 3 1091 203 5 c199 5 204 6 223 29 26 32 25 82 -3 108 -43 40 -2162 1253 -2188 1253 -14 -1 -472 -258 -1100 -620z"
       id="path4"
       style="fill:#ffffff;fill-opacity:1" />
  </g>
</svg>
