<?xml version="1.0" encoding="UTF-8" standalone="no"?>
<svg
   xmlns:dc="http://purl.org/dc/elements/1.1/"
   xmlns:cc="http://creativecommons.org/ns#"
   xmlns:rdf="http://www.w3.org/1999/02/22-rdf-syntax-ns#"
   xmlns:svg="http://www.w3.org/2000/svg"
   xmlns="http://www.w3.org/2000/svg"
   id="svg4"
   version="1.1"
   viewBox="0 0 20 20">
  <metadata
     id="metadata10">
    <rdf:RDF>
      <cc:Work
         rdf:about="">
        <dc:format>image/svg+xml</dc:format>
        <dc:type
           rdf:resource="http://purl.org/dc/dcmitype/StillImage" />
        <dc:title></dc:title>
      </cc:Work>
    </rdf:RDF>
  </metadata>
  <defs
     id="defs8" />
  <path
     style="fill:#ced1dd;fill-opacity:1"
     id="path2"
     d="M9.26 13a2 2 0 0 1 .01-2.01A3 3 0 0 0 9 5H5a3 3 0 0 0 0 6h.08a6.06 6.06 0 0 0 0 2H5A5 5 0 0 1 5 3h4a5 5 0 0 1 .26 10zm1.48-6a2 2 0 0 1-.01 2.01A3 3 0 0 0 11 15h4a3 3 0 0 0 0-6h-.08a6.06 6.06 0 0 0 0-2H15a5 5 0 0 1 0 10h-4a5 5 0 0 1-.26-10z" />
</svg>
