<?xml version="1.0" encoding="iso-8859-1"?>
<svg fill="#666" height="800px" width="800px" version="1.1" id="Layer_1" xmlns="http://www.w3.org/2000/svg" xmlns:xlink="http://www.w3.org/1999/xlink" 
	 viewBox="0 0 512 512" xml:space="preserve">
<g>
	<g>
		<g>
			<path d="M360.9,190.234c-3.336,3.337-3.336,8.73,0,12.066l19.567,19.567H332.8c-4.719,0-8.533,3.823-8.533,8.533
				s3.814,8.533,8.533,8.533h47.667L360.9,258.5c-3.336,3.337-3.336,8.73,0,12.066c1.664,1.664,3.849,2.5,6.033,2.5
				c2.185,0,4.369-0.836,6.033-2.5l34.125-34.125c0.794-0.794,1.417-1.732,1.852-2.782c0.862-2.082,0.862-4.437,0-6.519
				c-0.435-1.05-1.058-1.988-1.852-2.782l-34.125-34.125C369.63,186.897,364.237,186.897,360.9,190.234z"/>
			<path d="M213.333,119.467H384c4.719,0,8.533-3.823,8.533-8.533S388.719,102.4,384,102.4H213.333
				c-4.719,0-8.533,3.823-8.533,8.533S208.614,119.467,213.333,119.467z"/>
			<path d="M196.267,290.133h68.267c4.719,0,8.533-3.823,8.533-8.533s-3.814-8.533-8.533-8.533h-68.267
				c-4.719,0-8.533,3.823-8.533,8.533S191.548,290.133,196.267,290.133z"/>
			<path d="M196.267,187.733h51.2c4.719,0,8.533-3.823,8.533-8.533s-3.814-8.533-8.533-8.533h-51.2
				c-4.719,0-8.533,3.823-8.533,8.533S191.548,187.733,196.267,187.733z"/>
			<path d="M196.267,238.933H281.6c4.719,0,8.533-3.823,8.533-8.533s-3.814-8.533-8.533-8.533h-85.333
				c-4.719,0-8.533,3.823-8.533,8.533S191.548,238.933,196.267,238.933z"/>
			<path d="M162.133,102.4c-23.526,0-42.667,19.14-42.667,42.667v170.667c0,23.526,19.14,42.667,42.667,42.667H435.2
				c23.526,0,42.667-19.14,42.667-42.667V145.067c0-23.526-19.14-42.667-42.667-42.667h-8.533V68.267h76.8
				c4.719,0,8.533-3.823,8.533-8.533s-3.814-8.533-8.533-8.533H85.333V25.6c0-14.114-11.486-25.6-25.6-25.6s-25.6,11.486-25.6,25.6
				v469.333h-25.6c-4.719,0-8.533,3.823-8.533,8.533S3.814,512,8.533,512H128c4.719,0,8.533-3.823,8.533-8.533
				s-3.814-8.533-8.533-8.533H85.333V93.867c0-4.71-3.814-8.533-8.533-8.533s-8.533,3.823-8.533,8.533v401.067H51.2V25.6
				c0-4.702,3.823-8.533,8.533-8.533s8.533,3.831,8.533,8.533v34.133c0,4.71,3.814,8.533,8.533,8.533h93.867V102.4H162.133z
				 M179.2,119.467c4.719,0,8.533-3.823,8.533-8.533V68.267H409.6v42.667c0,4.71,3.814,8.533,8.533,8.533H435.2
				c14.114,0,25.6,11.486,25.6,25.6v170.667c0,14.114-11.486,25.6-25.6,25.6H162.133c-14.114,0-25.6-11.486-25.6-25.6V145.067
				c0-14.114,11.486-25.6,25.6-25.6H179.2z"/>
		</g>
	</g>
</g>
</svg>