<?xml version="1.0" encoding="utf-8"?>
<!-- Generator: Adobe Illustrator 18.1.0, SVG Export Plug-In . SVG Version: 6.00 Build 0)  -->
<svg version="1.1" xmlns="http://www.w3.org/2000/svg" xmlns:xlink="http://www.w3.org/1999/xlink" x="0px" y="0px" width="30px"
	 height="22.5px" viewBox="0 0 30 22.5" enable-background="new 0 0 30 22.5" xml:space="preserve">
<g id="Layer_1">
</g>
<g id="Layer_2" display="none">
	<g display="inline">
		<defs>
			<rect id="SVGID_1_" x="-443.2" y="-23.2" width="1080" height="826"/>
		</defs>
		<clipPath id="SVGID_2_">
			<use xlink:href="#SVGID_1_"  overflow="visible"/>
		</clipPath>
		<g clip-path="url(#SVGID_2_)">
			<defs>
				<rect id="SVGID_3_" x="499.6" y="312.8" width="2" height="16"/>
			</defs>
			<clipPath id="SVGID_4_">
				<use xlink:href="#SVGID_3_"  overflow="visible"/>
			</clipPath>
			<g clip-path="url(#SVGID_4_)">
				<rect x="494.6" y="307.8" fill="#696BB1" width="12" height="26"/>
			</g>
		</g>
	</g>
	<g display="inline">
		<defs>
			<rect id="SVGID_5_" x="-443.2" y="-23.2" width="1080" height="826"/>
		</defs>
		<clipPath id="SVGID_6_">
			<use xlink:href="#SVGID_5_"  overflow="visible"/>
		</clipPath>
		<g clip-path="url(#SVGID_6_)">
			<path fill="#979FB9" d="M500.4,327.9l3-2.2l0.8,1.1l-3.8,2.9l-3.7-2.9l0.8-1.1L500.4,327.9z"/>
		</g>
	</g>
	<g display="inline">
		<defs>
			<rect id="SVGID_7_" x="-443.2" y="-23.2" width="1080" height="826"/>
		</defs>
		<clipPath id="SVGID_8_">
			<use xlink:href="#SVGID_7_"  overflow="visible"/>
		</clipPath>
		<g clip-path="url(#SVGID_8_)">
			<defs>
				<rect id="SVGID_9_" x="508.6" y="312.8" width="16" height="4"/>
			</defs>
			<clipPath id="SVGID_10_">
				<use xlink:href="#SVGID_9_"  overflow="visible"/>
			</clipPath>
			<g clip-path="url(#SVGID_10_)">
				<rect x="503.6" y="307.8" fill="#696BB1" width="26" height="14"/>
			</g>
		</g>
	</g>
	<g display="inline">
		<defs>
			<rect id="SVGID_11_" x="-443.2" y="-23.2" width="1080" height="826"/>
		</defs>
		<clipPath id="SVGID_12_">
			<use xlink:href="#SVGID_11_"  overflow="visible"/>
		</clipPath>
		<g clip-path="url(#SVGID_12_)">
			<defs>
				<rect id="SVGID_13_" x="508.6" y="318.8" width="12" height="4"/>
			</defs>
			<clipPath id="SVGID_14_">
				<use xlink:href="#SVGID_13_"  overflow="visible"/>
			</clipPath>
			<g clip-path="url(#SVGID_14_)">
				<rect x="503.6" y="313.8" fill="#696BB1" width="22" height="14"/>
			</g>
		</g>
	</g>
	<g display="inline">
		<defs>
			<rect id="SVGID_15_" x="-443.2" y="-23.2" width="1080" height="826"/>
		</defs>
		<clipPath id="SVGID_16_">
			<use xlink:href="#SVGID_15_"  overflow="visible"/>
		</clipPath>
		<g clip-path="url(#SVGID_16_)">
			<defs>
				<rect id="SVGID_17_" x="508.6" y="324.8" width="6" height="4"/>
			</defs>
			<clipPath id="SVGID_18_">
				<use xlink:href="#SVGID_17_"  overflow="visible"/>
			</clipPath>
			<g clip-path="url(#SVGID_18_)">
				<rect x="503.6" y="319.8" fill="#696BB1" width="16" height="14"/>
			</g>
		</g>
	</g>
</g>
<g id="Layer_3">
	<g>
		<rect x="12.7" y="3.5" fill="#696BB1" width="16" height="4"/>
		<rect x="12.7" y="9.5" fill="#696BB1" width="12" height="4"/>
		<rect x="12.7" y="15.5" fill="#696BB1" width="6" height="4"/>
		<polygon fill="#696BB1" points="8.5,17.6 4.7,20.5 1,17.6 1.8,16.5 3.8,18 3.8,3.5 5.8,3.5 5.8,17.9 7.7,16.5 		"/>
	</g>
</g>
</svg>
