<svg xmlns="http://www.w3.org/2000/svg" width="11" height="16" viewBox="0 0 11 16">
    <g fill="none" fill-rule="evenodd">
        <path d="M0 0h21v21H0z" transform="translate(-5 -3)" />
        <path fill="#757875" d="M15.5 5h-10a.5.5 0 0 1 0-1h10a.5.5 0 0 1 0 1"
            transform="translate(-5 -3)" />
        <path fill="#757875"
            d="M11 4h-1v-.5a.5.5 0 0 1 1 0V4Zm5 2.5v11.995a.505.505 0 0 1-.505.505h-9.99A.505.505 0 0 1 5 18.495V6.5c0-.28.22-.5.5-.5s.5.22.5.5v10.995c0 .279.226.505.505.505h7.99a.505.505 0 0 0 .505-.505V6.5c0-.28.22-.5.5-.5s.5.22.5.5"
            transform="translate(-5 -3)" />
        <path fill="#757875"
            d="M8.5 17a.5.5 0 0 1-.5-.5v-9a.5.5 0 0 1 1 0v9a.5.5 0 0 1-.5.5m2 0a.5.5 0 0 1-.5-.5v-9a.5.5 0 0 1 1 0v9a.5.5 0 0 1-.5.5"
            transform="translate(-5 -3)" />
        <path fill="#757875" d="M12.5 17a.5.5 0 0 1-.5-.5v-9a.5.5 0 0 1 1 0v9a.5.5 0 0 1-.5.5"
            transform="translate(-5 -3)" />
    </g>
</svg>