<svg xmlns="http://www.w3.org/2000/svg" xmlns:xlink="http://www.w3.org/1999/xlink" width="11"
    height="16" version="1.1" viewBox="0 0 11 16">
    <g id="11/30---Checkin" fill="none" fill-rule="evenodd" stroke="none" stroke-width="1">
        <g id="Timeline_1-Copy-4" transform="translate(-377.000000, -661.000000)">
            <g id="icons/trash/red-copy-5" transform="translate(372.000000, 658.000000)">
                <rect id="icon-container" width="21" height="21" x="0" y="0" />
                <path id="Fill-1" fill="#D95757"
                    d="M15.5,5 L5.5,5 C5.224,5 5,4.776 5,4.5 L5,4.5 C5,4.224 5.224,4 5.5,4 L15.5,4 C15.776,4 16,4.224 16,4.5 L16,4.5 C16,4.776 15.776,5 15.5,5" />
                <path id="Fill-3" fill="#D95757"
                    d="M11,4 L10,4 L10,3.5 C10,3.224 10.224,3 10.5,3 L10.5,3 C10.776,3 11,3.224 11,3.5 L11,4 Z" />
                <path id="Fill-5" fill="#D95757"
                    d="M16,6.5 L16,18.495 C16,18.774 15.774,19 15.495,19 L5.505,19 C5.226,19 5,18.774 5,18.495 L5,6.5 C5,6.22 5.22,6 5.5,6 C5.78,6 6,6.22 6,6.5 L6,17.495 C6,17.774 6.226,18 6.505,18 L14.495,18 C14.774,18 15,17.774 15,17.495 L15,6.5 C15,6.22 15.22,6 15.5,6 C15.78,6 16,6.22 16,6.5" />
                <path id="Fill-7" fill="#D95757"
                    d="M8.5,17 L8.5,17 C8.224,17 8,16.776 8,16.5 L8,7.5 C8,7.224 8.224,7 8.5,7 L8.5,7 C8.776,7 9,7.224 9,7.5 L9,16.5 C9,16.776 8.776,17 8.5,17" />
                <path id="Fill-9" fill="#D95757"
                    d="M10.5,17 L10.5,17 C10.224,17 10,16.776 10,16.5 L10,7.5 C10,7.224 10.224,7 10.5,7 L10.5,7 C10.776,7 11,7.224 11,7.5 L11,16.5 C11,16.776 10.776,17 10.5,17" />
                <path id="Fill-11" fill="#D95757"
                    d="M12.5,17 L12.5,17 C12.224,17 12,16.776 12,16.5 L12,7.5 C12,7.224 12.224,7 12.5,7 L12.5,7 C12.776,7 13,7.224 13,7.5 L13,16.5 C13,16.776 12.776,17 12.5,17" />
            </g>
        </g>
    </g>
</svg>