<?xml version="1.0" encoding="utf-8"?>
<!-- Generator: Adobe Illustrator 18.1.0, SVG Export Plug-In . SVG Version: 6.00 Build 0)  -->
<!DOCTYPE svg PUBLIC "-//W3C//DTD SVG 1.1//EN" "http://www.w3.org/Graphics/SVG/1.1/DTD/svg11.dtd">
<svg version="1.1" id="Layer_1" xmlns="http://www.w3.org/2000/svg" xmlns:xlink="http://www.w3.org/1999/xlink" x="0px" y="0px"
	 width="555px" height="555px" viewBox="27.1 119.1 555 555" enable-background="new 27.1 119.1 555 555" xml:space="preserve">
<path fill="#E2E2E2" d="M139.2,616.9c47.1,35.9,105.2,56.8,167.6,56.8c63.8,0,121.9-20.7,169-56.8c-0.4-0.9-0.7-1.8-1.3-2.6
	C540.1,563,581,484.7,581,395.3c1.5-152.4-121.9-275.7-275.7-275.7c-152.4,0-277,124.7-277,277c0,90,42.9,169,109.4,220.2"/>
<path opacity="0.49" fill="#858DAA" enable-background="new    " d="M346.9,514.4c49.9-16.7,85.8-63.8,85.8-120.4
	c0-70.6-56.8-126.1-126.1-126.1c-70.6,0-126.1,56.8-126.1,126.1c0,55.4,35.9,102.5,85.8,120.4c-59.6,12.5-106.7,51.3-127.4,102.5
	c47.1,35.9,105.2,56.8,167.6,56.8c63.8,0,121.9-20.7,169-56.8C453.6,565.8,405,526.9,346.9,514.4z"/>
</svg>
