<?xml version="1.0" encoding="UTF-8" standalone="no"?>
<svg width="1200px" height="810px" viewBox="0 0 1200 810" version="1.1" xmlns="http://www.w3.org/2000/svg" xmlns:xlink="http://www.w3.org/1999/xlink" xmlns:sketch="http://www.bohemiancoding.com/sketch/ns">
    <!-- Generator: Sketch 3.4.2 (15857) - http://www.bohemiancoding.com/sketch -->
    <title>Path 63</title>
    <desc>Created with Sketch.</desc>
    <defs>
        <rect id="path-1" x="0" y="0" width="1221" height="812"></rect>
    </defs>
    <g id="MVP-Design" stroke="none" stroke-width="1" fill="none" fill-rule="evenodd" sketch:type="MSPage">
        <g id="UF-Instructor-flow2-1-Copy-10" sketch:type="MSArtboardGroup">
            <g id="Path-63" sketch:type="MSLayerGroup" transform="translate(-10.000000, -2.000000)">
                <use id="Mask" fill="#676EB4" sketch:type="MSShapeGroup" xlink:href="#path-1"></use>
                <path d="M15.359708,454.471323 C40.0343779,448.13148 259.46882,390.495778 458.470241,393.084605 C657.471662,395.673431 627.688746,460.458423 783.753024,464.467417 C939.817303,468.476411 971.200041,406.69031 1158.72769,411.072886 C1346.25533,415.455462 1297.11124,477.985304 1469.55293,480.494761 C1641.99462,483.004218 1881.32699,421.588511 1881.32699,421.588511 L1932.40675,471.889292 L110.01612,717.084605 C110.01612,717.084605 -9.31496189,460.811167 15.359708,454.471323 Z" id="Path-63-Copy-2" fill="#696FB8" sketch:type="MSShapeGroup"></path>
                <path d="M-26.640292,490.471323 C-1.96562211,484.13148 217.46882,426.495778 416.470241,429.084605 C615.471662,431.673431 585.688746,496.458423 741.753024,500.467417 C897.817303,504.476411 929.200041,442.69031 1116.72769,447.072886 C1304.25533,451.455462 1255.11124,513.985304 1427.55293,516.494761 C1599.99462,519.004218 1839.32699,457.588511 1839.32699,457.588511 L1890.40675,507.889292 L68.0161202,753.084605 C68.0161202,753.084605 -51.3149619,496.811167 -26.640292,490.471323 Z" id="Path-63-Copy-2" fill="#6A71BA" sketch:type="MSShapeGroup"></path>
                <path d="M-27.0470372,549.386719 C-2.37236732,543.046875 217.062075,485.411174 416.063496,488 C615.064917,490.588826 585.282,555.373818 741.346279,559.382813 C897.410558,563.391807 928.793296,501.605706 1116.32094,505.988281 C1303.84859,510.370857 1254.7045,572.900699 1427.14619,575.410156 C1599.58788,577.919614 1838.92024,516.503906 1838.92024,516.503906 L1890,566.804688 L67.609375,812 C67.609375,812 -51.7217071,555.726563 -27.0470372,549.386719 Z" id="Path-63-Copy" fill="#6D74BF" sketch:type="MSShapeGroup"></path>
                <path d="M-13.150449,596.386719 C13.5199493,590.046875 314.599205,535 465.799603,535 C617,535 626.550916,601.847312 817.3918,606.382812 C1008.23268,610.918313 1042.54237,549.093109 1222.69504,552.988281 C1402.8477,556.883453 1348.7504,619.584024 1558.66035,622.410156 C1768.5703,625.236288 1931.63696,564.744137 2003.73938,563.503906 C2075.84179,562.263676 2058.95055,613.804688 2058.95055,613.804688 C2058.95055,613.804688 2738.79673,933.308594 2031.03534,1058.92578 C1323.27396,1184.54297 -26.8431263,1143.46484 -26.8431263,1143.46484 C-26.8431263,1143.46484 -39.8208473,602.726562 -13.150449,596.386719 Z" fill="#7177C7" sketch:type="MSShapeGroup"></path>
            </g>
        </g>
    </g>
</svg>