<?xml version="1.0" encoding="utf-8"?>
<!-- Generator: Adobe Illustrator 19.0.0, SVG Export Plug-In . SVG Version: 6.00 Build 0)  -->
<svg version="1.1" id="Layer_1" xmlns="http://www.w3.org/2000/svg" xmlns:xlink="http://www.w3.org/1999/xlink" x="0px" y="0px"
	 viewBox="0 0 18 18" style="enable-background:new 0 0 18 18;" xml:space="preserve">
<g id="XMLID_2_">
	<g id="XMLID_4_">
		<path d="M8.1,11.2v-0.4c0-0.5,0.1-1,0.2-1.3s0.5-0.7,0.9-1.1c0.6-0.5,1-0.9,1.2-1.2s0.2-0.6,0.2-1c0-0.5-0.2-0.8-0.5-1.1
			S9.5,4.8,8.9,4.8c-0.4,0-0.7,0-1.1,0.1S7.1,5.2,6.7,5.4L6.2,4.5C7.1,4,8,3.8,9,3.8c0.9,0,1.6,0.2,2,0.6c0.5,0.4,0.7,1,0.7,1.8
			c0,0.3,0,0.6-0.1,0.9s-0.2,0.5-0.4,0.7C11,8.1,10.7,8.5,10.1,9c-0.5,0.4-0.8,0.7-0.9,1c-0.1,0.3-0.2,0.6-0.2,1v0.2H8.1z M7.7,13.3
			c0-0.6,0.3-0.9,0.8-0.9c0.3,0,0.5,0.1,0.6,0.2c0.1,0.2,0.2,0.4,0.2,0.7c0,0.3-0.1,0.5-0.2,0.7s-0.4,0.2-0.6,0.2
			c-0.2,0-0.4-0.1-0.6-0.2C7.8,13.9,7.7,13.6,7.7,13.3z"/>
	</g>
</g>
<g id="XMLID_1_">
	<path id="XMLID_7_" d="M9,18c-5,0-9-4-9-9c0-5,4-9,9-9c5,0,9,4,9,9C18,14,14,18,9,18z M9,1C4.6,1,1,4.6,1,9s3.6,8,8,8s8-3.6,8-8
		S13.4,1,9,1z"/>
</g>
</svg>
