<svg xmlns="http://www.w3.org/2000/svg" xmlns:xlink="http://www.w3.org/1999/xlink" id="Layer_1" x="0" y="0" enable-background="new 0 0 16 16" version="1.1" viewBox="0 0 16 16" xml:space="preserve"><style type="text/css">.st0{fill:#6F73B4}</style><path id="XMLID_3_" d="M8.3,15.4H7.7c-0.3,0-0.5-0.2-0.5-0.5V0.8c0-0.3,0.2-0.5,0.5-0.5h0.6c0.3,0,0.5,0.2,0.5,0.5v14.1	C8.8,15.2,8.6,15.4,8.3,15.4z" class="st0"/><path id="XMLID_1_" d="M0.4,8.1V7.6c0-0.3,0.2-0.5,0.5-0.5h14.1c0.3,0,0.5,0.2,0.5,0.5v0.6c0,0.3-0.2,0.5-0.5,0.5H0.9	C0.7,8.6,0.4,8.4,0.4,8.1z" class="st0"/></svg>