<?xml version="1.0" encoding="utf-8"?>
<!-- Generator: Adobe Illustrator 19.0.0, SVG Export Plug-In . SVG Version: 6.00 Build 0)  -->
<svg version="1.1" id="Layer_1" xmlns="http://www.w3.org/2000/svg" xmlns:xlink="http://www.w3.org/1999/xlink" x="0px" y="0px"
	 viewBox="0 0 16 16" style="enable-background:new 0 0 16 16;" xml:space="preserve">
<style type="text/css">
	.st0{fill:#A09F9F;}
</style>
<path id="XMLID_3_" class="st0" d="M8.1,16H7.9c-0.3,0-0.5-0.2-0.5-0.5v-15C7.4,0.2,7.6,0,7.9,0h0.2c0.3,0,0.5,0.2,0.5,0.5v15
	C8.6,15.8,8.4,16,8.1,16z"/>
<path id="XMLID_2_" class="st0" d="M16,7.9v0.2c0,0.3-0.2,0.5-0.5,0.5h-15C0.2,8.6,0,8.4,0,8.1V7.9c0-0.3,0.2-0.5,0.5-0.5h15
	C15.8,7.4,16,7.6,16,7.9z"/>
</svg>
