<svg xmlns="http://www.w3.org/2000/svg" xmlns:xlink="http://www.w3.org/1999/xlink" x="0" y="0" enable-background="new 0 0 30 22.5" version="1.1" viewBox="0 0 30 22.5" xml:space="preserve"><g id="Layer_2" display="none"><g display="inline"><defs><rect id="SVGID_1_" width="1080" height="826" x="-443.2" y="-23.2"/></defs><clipPath id="SVGID_2_"><use overflow="visible" xlink:href="#SVGID_1_"/></clipPath><g clip-path="url(#SVGID_2_)"><defs><rect id="SVGID_3_" width="2" height="16" x="499.6" y="312.8"/></defs><clipPath id="SVGID_4_"><use overflow="visible" xlink:href="#SVGID_3_"/></clipPath><g clip-path="url(#SVGID_4_)"><rect width="12" height="26" x="494.6" y="307.8" fill="#858DAA"/></g></g></g><g display="inline"><defs><rect id="SVGID_5_" width="1080" height="826" x="-443.2" y="-23.2"/></defs><clipPath id="SVGID_6_"><use overflow="visible" xlink:href="#SVGID_5_"/></clipPath><g clip-path="url(#SVGID_6_)"><path fill="#979FB9" d="M500.4,327.9l3-2.2l0.8,1.1l-3.8,2.9l-3.7-2.9l0.8-1.1L500.4,327.9z"/></g></g><g display="inline"><defs><rect id="SVGID_7_" width="1080" height="826" x="-443.2" y="-23.2"/></defs><clipPath id="SVGID_8_"><use overflow="visible" xlink:href="#SVGID_7_"/></clipPath><g clip-path="url(#SVGID_8_)"><defs><rect id="SVGID_9_" width="16" height="4" x="508.6" y="312.8"/></defs><clipPath id="SVGID_10_"><use overflow="visible" xlink:href="#SVGID_9_"/></clipPath><g clip-path="url(#SVGID_10_)"><rect width="26" height="14" x="503.6" y="307.8" fill="#858DAA"/></g></g></g><g display="inline"><defs><rect id="SVGID_11_" width="1080" height="826" x="-443.2" y="-23.2"/></defs><clipPath id="SVGID_12_"><use overflow="visible" xlink:href="#SVGID_11_"/></clipPath><g clip-path="url(#SVGID_12_)"><defs><rect id="SVGID_13_" width="12" height="4" x="508.6" y="318.8"/></defs><clipPath id="SVGID_14_"><use overflow="visible" xlink:href="#SVGID_13_"/></clipPath><g clip-path="url(#SVGID_14_)"><rect width="22" height="14" x="503.6" y="313.8" fill="#858DAA"/></g></g></g><g display="inline"><defs><rect id="SVGID_15_" width="1080" height="826" x="-443.2" y="-23.2"/></defs><clipPath id="SVGID_16_"><use overflow="visible" xlink:href="#SVGID_15_"/></clipPath><g clip-path="url(#SVGID_16_)"><defs><rect id="SVGID_17_" width="6" height="4" x="508.6" y="324.8"/></defs><clipPath id="SVGID_18_"><use overflow="visible" xlink:href="#SVGID_17_"/></clipPath><g clip-path="url(#SVGID_18_)"><rect width="16" height="14" x="503.6" y="319.8" fill="#858DAA"/></g></g></g></g><g id="Layer_3"><g><rect width="16" height="4" x="12.7" y="3.5" fill="#858DAA"/><rect width="12" height="4" x="12.7" y="9.5" fill="#858DAA"/><rect width="6" height="4" x="12.7" y="15.5" fill="#858DAA"/><polygon fill="#858DAA" points="8.5 17.6 4.7 20.5 1 17.6 1.8 16.5 3.8 18 3.8 3.5 5.8 3.5 5.8 17.9 7.7 16.5"/></g></g></svg>