<?xml version="1.0" encoding="utf-8"?>
<!-- Generator: Adobe Illustrator 19.0.0, SVG Export Plug-In . SVG Version: 6.00 Build 0)  -->
<svg version="1.1" id="Layer_1" xmlns="http://www.w3.org/2000/svg" xmlns:xlink="http://www.w3.org/1999/xlink" x="0px" y="0px"
	 viewBox="0 0 16 16" style="enable-background:new 0 0 16 16;" xml:space="preserve">
<style type="text/css">
	.st0{fill:#A09F9F;}
</style>
<path class="st0" d="M13.5,2h-10C3.2,2,3,1.8,3,1.5v0C3,1.2,3.2,1,3.5,1h10C13.8,1,14,1.2,14,1.5v0C14,1.8,13.8,2,13.5,2z"/>
<path class="st0" d="M9,1H8V0.5C8,0.2,8.2,0,8.5,0h0C8.8,0,9,0.2,9,0.5V1z"/>
<path class="st0" d="M14,3.5v12c0,0.3-0.2,0.5-0.5,0.5h-10C3.2,16,3,15.8,3,15.5v-12C3,3.2,3.2,3,3.5,3S4,3.2,4,3.5v11
	C4,14.8,4.2,15,4.5,15h8c0.3,0,0.5-0.2,0.5-0.5v-11C13,3.2,13.2,3,13.5,3S14,3.2,14,3.5z"/>
<path class="st0" d="M6.5,14L6.5,14C6.2,14,6,13.8,6,13.5v-9C6,4.2,6.2,4,6.5,4h0C6.8,4,7,4.2,7,4.5v9C7,13.8,6.8,14,6.5,14z"/>
<path class="st0" d="M8.5,14L8.5,14C8.2,14,8,13.8,8,13.5v-9C8,4.2,8.2,4,8.5,4h0C8.8,4,9,4.2,9,4.5v9C9,13.8,8.8,14,8.5,14z"/>
<path class="st0" d="M10.5,14L10.5,14c-0.3,0-0.5-0.2-0.5-0.5v-9C10,4.2,10.2,4,10.5,4h0C10.8,4,11,4.2,11,4.5v9
	C11,13.8,10.8,14,10.5,14z"/>
</svg>
