<?xml version="1.0" encoding="UTF-8" standalone="no"?>
<svg width="50px" height="50px" viewBox="0 0 50 50" version="1.1" xmlns="http://www.w3.org/2000/svg" xmlns:xlink="http://www.w3.org/1999/xlink" xmlns:sketch="http://www.bohemiancoding.com/sketch/ns">
    <!-- Generator: Sketch 3.4.2 (15857) - http://www.bohemiancoding.com/sketch -->
    <title>Slice 1</title>
    <desc>Created with Sketch.</desc>
    <defs></defs>
    <g id="Page-1" stroke="none" stroke-width="1" fill="none" fill-rule="evenodd" sketch:type="MSPage">
        <g id="wiki_icon" sketch:type="MSLayerGroup" transform="translate(0.000000, 9.000000)" fill="#000000">
            <path d="M32.4154211,31.9763806 L26.0149735,17.0262765 C23.479052,21.9607099 20.6694009,27.088599 18.2648775,31.9685775 C18.2515618,31.9938458 17.1028393,31.9789912 17.1023227,31.9640125 C13.4275371,23.4595913 9.61783879,15.0111828 5.92542974,6.51331675 C5.0690474,4.43599773 2.07067372,1.09424489 0.0192767084,1.11324564 C0.0185204524,0.871863505 0.00717853705,0.334046115 0.00384985563,0.00787782252 L12.6539885,0.00194362416 L12.6453903,1.09276969 C11.1596809,1.16144131 8.5928205,2.10127391 9.25727117,3.72786923 C11.0410128,7.54540265 17.3539716,22.3367111 19.0601756,26.0916307 C20.2512271,23.7806723 23.5759023,17.6200805 24.9442469,15.0152949 C23.8712801,12.8316554 20.3247714,4.67755383 19.2615087,2.62352656 C18.4596239,1.28494819 16.4474341,1.12089485 14.8973229,1.09794148 C14.8978465,0.754006622 14.9166379,0.490844922 14.9085043,0.0208818494 L26.030166,0.0548502908 L26.030166,1.05638515 C24.524052,1.09784841 23.0989317,1.65338321 23.74391,3.0804973 C25.24,6.16037345 26.1127334,8.35235842 27.4883013,11.2005488 C27.9276732,10.3665 30.1738234,5.79309172 31.2458855,3.37826816 C31.8940111,1.77429095 30.9265472,1.17219365 28.2167926,1.0999512 C28.252654,0.836042118 28.2290255,0.306015451 28.2517757,0.0534524087 C31.7099038,0.0405381059 36.9315544,0.0285427591 37.856191,0.0147092617 L37.8612777,1.05697957 C36.0960515,1.12490166 34.2701901,2.05775535 33.3162079,3.50507287 L28.6912656,13.017641 C29.1991843,14.2773298 33.645154,24.0729533 34.113821,25.1593712 L43.6760419,3.2735864 C42.9959601,1.50109256 40.825474,1.10538834 39.9769249,1.08541542 C39.9830125,0.803613781 39.9834937,0.373006413 39.9858879,0.0143193438 L49.9677743,0.0896209993 L49.9813186,0.139649336 L49.9642613,1.08084236 C47.774384,1.14628916 46.4197185,2.30749733 45.6103417,4.21133817 C43.6212368,8.6674298 37.5403561,22.7812415 33.4817348,31.9795114 C33.4764196,31.984556 32.4177647,31.9779579 32.4154211,31.9763806 L32.4154211,31.9763806 Z" id="path1873" sketch:type="MSShapeGroup"></path>
        </g>
    </g>
</svg>