<?xml version="1.0" encoding="utf-8"?>
<!-- Generated by IcoMoon.io -->
<!DOCTYPE svg PUBLIC "-//W3C//DTD SVG 1.1//EN" "http://www.w3.org/Graphics/SVG/1.1/DTD/svg11.dtd">
<svg version="1.1" xmlns="http://www.w3.org/2000/svg" xmlns:xlink="http://www.w3.org/1999/xlink" width="28" height="28" viewBox="0 0 28 28">
<path d="M22 14.5v5q0 1.859-1.32 3.18t-3.18 1.32h-13q-1.859 0-3.18-1.32t-1.32-3.18v-13q0-1.859 1.32-3.18t3.18-1.32h11q0.219 0 0.359 0.141t0.141 0.359v1q0 0.219-0.141 0.359t-0.359 0.141h-11q-1.031 0-1.766 0.734t-0.734 1.766v13q0 1.031 0.734 1.766t1.766 0.734h13q1.031 0 1.766-0.734t0.734-1.766v-5q0-0.219 0.141-0.359t0.359-0.141h1q0.219 0 0.359 0.141t0.141 0.359zM28 1v8q0 0.406-0.297 0.703t-0.703 0.297-0.703-0.297l-2.75-2.75-10.187 10.187q-0.156 0.156-0.359 0.156t-0.359-0.156l-1.781-1.781q-0.156-0.156-0.156-0.359t0.156-0.359l10.187-10.187-2.75-2.75q-0.297-0.297-0.297-0.703t0.297-0.703 0.703-0.297h8q0.406 0 0.703 0.297t0.297 0.703z"></path>
</svg>
