<svg xmlns="http://www.w3.org/2000/svg" width="1076" height="346" version="1.1"><rect width="140" height="101" x="922" y="31" fill="#fff" stroke="#fff" stroke-width="1"/><rect width="140" height="101" x="922" y="31" fill="none" stroke="#000" stroke-width="1"/><text x="972" y="44" font-family="Dialog" font-size="12">Article</text><rect width="140" height="1" x="922" y="54" fill="#000" stroke="#000" stroke-width="1"/><text x="926" y="68" font-family="Dialog" font-size="12">mw_page_id : Integer</text><text x="926" y="84" font-family="Dialog" font-size="12">wiki_id : Integer</text><rect width="140" height="1" x="922" y="102" fill="#000" stroke="#000" stroke-width="1"/><rect width="219" height="69" x="386" y="31" fill="#fff" stroke="#fff" stroke-width="1"/><rect width="219" height="69" x="386" y="31" fill="none" stroke="#000" stroke-width="1"/><text x="473" y="44" font-family="Dialog" font-size="12">Course</text><rect width="219" height="1" x="386" y="54" fill="#000" stroke="#000" stroke-width="1"/><text x="390" y="68" font-family="Dialog" font-size="12">&lt;&lt;Calculated&gt;&gt; home_wiki : Wiki</text><rect width="219" height="1" x="386" y="78" fill="#000" stroke="#000" stroke-width="1"/><rect width="152" height="85" x="402" y="207" fill="#fff" stroke="#fff" stroke-width="1"/><rect width="152" height="85" x="402" y="207" fill="none" stroke="#000" stroke-width="1"/><text x="466" y="220" font-family="Dialog" font-size="12">Wiki</text><rect width="152" height="1" x="402" y="230" fill="#000" stroke="#000" stroke-width="1"/><text x="406" y="244" font-family="Dialog" font-size="12">language : String</text><text x="406" y="260" font-family="Dialog" font-size="12">project : String</text><rect width="152" height="1" x="402" y="270" fill="#000" stroke="#000" stroke-width="1"/><rect width="219" height="101" x="66" y="31" fill="#fff" stroke="#fff" stroke-width="1"/><rect width="219" height="101" x="66" y="31" fill="none" stroke="#000" stroke-width="1"/><text x="161" y="44" font-family="Dialog" font-size="12">User</text><rect width="219" height="1" x="66" y="54" fill="#000" stroke="#000" stroke-width="1"/><text x="70" y="68" font-family="Dialog" font-size="12">username : String</text><text x="70" y="84" font-family="Dialog" font-size="12">&lt;&lt;Calculated&gt;&gt; home_wiki : Wiki</text><rect width="219" height="1" x="66" y="102" fill="#000" stroke="#000" stroke-width="1"/><polyline fill="none" stroke="#000" stroke-width="1" points="146 131 146 231 402 231"/><polygon fill="#fff" stroke="#fff" stroke-width="1" points="146 131 151 141 146 151 141 141"/><polygon fill="none" stroke="#000" stroke-width="1" points="146 131 151 141 146 151 141 141"/><text x="364" y="222" font-family="Dialog" font-size="12">0..1</text><text x="350" y="246" font-family="Dialog" font-size="12">home</text><polyline fill="none" stroke="#000" stroke-width="1" points="922 131 634 247 553 247"/><polygon fill="#fff" stroke="#fff" stroke-width="1" points="922 131 914 139 904 138 910 130"/><polygon fill="none" stroke="#000" stroke-width="1" points="922 131 914 139 904 138 910 130"/><line x1="565" x2="553" y1="240" y2="247" fill="#000" stroke="#000" stroke-width="1"/><line x1="565" x2="553" y1="254" y2="247" fill="#000" stroke="#000" stroke-width="1"/><text x="566" y="237" font-family="Dialog" font-size="12">1</text><polyline fill="none" stroke="#000" stroke-width="1" points="674 115 553 207"/><polygon fill="#fff" stroke="#fff" stroke-width="1" points="674 115 669 125 659 127 663 117"/><polygon fill="none" stroke="#000" stroke-width="1" points="674 115 669 125 659 127 663 117"/><line x1="558" x2="553" y1="194" y2="207" fill="#000" stroke="#000" stroke-width="1"/><line x1="566" x2="553" y1="205" y2="207" fill="#000" stroke="#000" stroke-width="1"/><text x="555" y="186" font-family="Dialog" font-size="12">1</text><polyline fill="none" stroke="#000" stroke-width="1" points="813 107 922 107"/><polygon fill="#fff" stroke="#fff" stroke-width="1" points="813 107 823 102 833 107 823 112"/><polygon fill="none" stroke="#000" stroke-width="1" points="813 107 823 102 833 107 823 112"/><line x1="910" x2="922" y1="114" y2="107" fill="#000" stroke="#000" stroke-width="1"/><line x1="910" x2="922" y1="100" y2="107" fill="#000" stroke="#000" stroke-width="1"/><text x="832" y="102" font-family="Dialog" font-size="12">0..*</text><text x="884" y="100" font-family="Dialog" font-size="12">0..1</text><rect width="140" height="117" x="874" y="215" fill="#fff" stroke="#fff" stroke-width="1"/><rect width="140" height="117" x="874" y="215" fill="none" stroke="#000" stroke-width="1"/><text x="918" y="228" font-family="Dialog" font-size="12">Revision</text><rect width="140" height="1" x="874" y="238" fill="#000" stroke="#000" stroke-width="1"/><text x="878" y="252" font-family="Dialog" font-size="12">mw_page_id : Integer</text><text x="878" y="268" font-family="Dialog" font-size="12">mw_rev_id : Integer</text><text x="878" y="284" font-family="Dialog" font-size="12">wiki_id : Integer</text><rect width="140" height="1" x="874" y="302" fill="#000" stroke="#000" stroke-width="1"/><polyline fill="none" stroke="#000" stroke-width="1" points="106 131 106 279 402 279"/><polygon fill="#fff" stroke="#fff" stroke-width="1" points="106 131 111 141 106 151 101 141"/><polygon fill="none" stroke="#000" stroke-width="1" points="106 131 111 141 106 151 101 141"/><text x="368" y="274" font-family="Dialog" font-size="12">0..*</text><text x="365" y="294" font-family="Dialog" font-size="12">edits</text><ellipse cx="180" cy="277" fill="#000" stroke="#000" stroke-width="1" rx=".5" ry=".5"/><ellipse cx="181" cy="278" fill="#fff" stroke="#fff" stroke-width="1" rx="-.5" ry="-.5"/><polyline fill="none" stroke="#000" stroke-width="1" points="386 47 284 47"/><polygon fill="#fff" stroke="#fff" stroke-width="1" points="386 47 376 52 366 47 376 42"/><polygon fill="none" stroke="#000" stroke-width="1" points="386 47 376 52 366 47 376 42"/><line x1="296" x2="284" y1="40" y2="47" fill="#000" stroke="#000" stroke-width="1"/><line x1="296" x2="284" y1="54" y2="47" fill="#000" stroke="#000" stroke-width="1"/><text x="298" y="42" font-family="Dialog" font-size="12">0..*</text><text x="298" y="61" font-family="Dialog" font-size="12">member</text><polyline fill="none" stroke="#000" stroke-width="1" points="874 271 553 271"/><polygon fill="#fff" stroke="#fff" stroke-width="1" points="874 271 864 276 854 271 864 266"/><polygon fill="none" stroke="#000" stroke-width="1" points="874 271 864 276 854 271 864 266"/><line x1="565" x2="553" y1="264" y2="271" fill="#000" stroke="#000" stroke-width="1"/><line x1="565" x2="553" y1="278" y2="271" fill="#000" stroke="#000" stroke-width="1"/><text x="567" y="296" font-family="Dialog" font-size="12">1</text><polyline fill="none" stroke="#000" stroke-width="1" points="604 99 674 99"/><polygon fill="#000" stroke="#000" stroke-width="1" points="604 99 614 94 624 99 614 104"/><polygon fill="none" stroke="#000" stroke-width="1" points="604 99 614 94 624 99 614 104"/><line x1="662" x2="674" y1="106" y2="99" fill="#000" stroke="#000" stroke-width="1"/><line x1="662" x2="674" y1="92" y2="99" fill="#000" stroke="#000" stroke-width="1"/><text x="617" y="94" font-family="Dialog" font-size="12">1</text><text x="644" y="93" font-family="Dialog" font-size="12">0..*</text><polyline fill="none" stroke="#000" stroke-width="1" points="938 131 938 215"/><polygon fill="#000" stroke="#000" stroke-width="1" points="938 131 943 141 938 151 933 141"/><polygon fill="none" stroke="#000" stroke-width="1" points="938 131 943 141 938 151 933 141"/><line x1="931" x2="938" y1="203" y2="215" fill="#000" stroke="#000" stroke-width="1"/><line x1="945" x2="938" y1="203" y2="215" fill="#000" stroke="#000" stroke-width="1"/><text x="951" y="158" font-family="Dialog" font-size="12">1</text><text x="945" y="200" font-family="Dialog" font-size="12">0..*</text><polyline fill="none" stroke="#000" stroke-width="1" points="386 83 284 83"/><polygon fill="#fff" stroke="#fff" stroke-width="1" points="386 83 376 88 366 83 376 78"/><polygon fill="none" stroke="#000" stroke-width="1" points="386 83 376 88 366 83 376 78"/><line x1="296" x2="284" y1="76" y2="83" fill="#000" stroke="#000" stroke-width="1"/><line x1="296" x2="284" y1="90" y2="83" fill="#000" stroke="#000" stroke-width="1"/><text x="301" y="78" font-family="Dialog" font-size="12">1..*</text><text x="298" y="100" font-family="Dialog" font-size="12">facilitator</text><polyline fill="none" stroke="#000" stroke-width="1" points="418 99 418 207"/><text x="423" y="190" font-family="Dialog" font-size="12">0..1</text><text x="381" y="178" font-family="Dialog" font-size="12">home</text><polyline fill="none" stroke="#000" stroke-width="1" points="490 99 490 207"/><text x="496" y="190" font-family="Dialog" font-size="12">0..*</text><text x="456" y="179" font-family="Dialog" font-size="12">edits</text><ellipse cx="492" cy="153" fill="#000" stroke="#000" stroke-width="1" rx=".5" ry=".5"/><ellipse cx="493" cy="154" fill="#fff" stroke="#fff" stroke-width="1" rx="-.5" ry="-.5"/><rect width="140" height="85" x="674" y="31" fill="#fff" stroke="#fff" stroke-width="1"/><rect width="140" height="85" x="674" y="31" fill="none" stroke="#000" stroke-width="1"/><text x="707" y="44" font-family="Dialog" font-size="12">Assignment</text><rect width="140" height="1" x="674" y="54" fill="#000" stroke="#000" stroke-width="1"/><text x="678" y="68" font-family="Dialog" font-size="12">mw_page_id : Integer</text><text x="678" y="84" font-family="Dialog" font-size="12">wiki_id : Integer</text><rect width="140" height="1" x="674" y="94" fill="#000" stroke="#000" stroke-width="1"/><line x1="492" x2="496" y1="153" y2="152" fill="#000" stroke="#000" stroke-width="1"/><line x1="501" x2="506" y1="151" y2="150" fill="#000" stroke="#000" stroke-width="1"/><line x1="511" x2="516" y1="149" y2="148" fill="#000" stroke="#000" stroke-width="1"/><line x1="521" x2="526" y1="147" y2="146" fill="#000" stroke="#000" stroke-width="1"/><line x1="531" x2="536" y1="145" y2="144" fill="#000" stroke="#000" stroke-width="1"/><line x1="541" x2="546" y1="143" y2="142" fill="#000" stroke="#000" stroke-width="1"/><line x1="551" x2="555" y1="141" y2="140" fill="#000" stroke="#000" stroke-width="1"/><line x1="560" x2="565" y1="139" y2="138" fill="#000" stroke="#000" stroke-width="1"/><line x1="570" x2="575" y1="137" y2="136" fill="#000" stroke="#000" stroke-width="1"/><line x1="580" x2="585" y1="135" y2="134" fill="#000" stroke="#000" stroke-width="1"/><line x1="590" x2="595" y1="133" y2="132" fill="#000" stroke="#000" stroke-width="1"/><line x1="600" x2="605" y1="131" y2="130" fill="#000" stroke="#000" stroke-width="1"/><line x1="610" x2="614" y1="129" y2="128" fill="#000" stroke="#000" stroke-width="1"/><line x1="619" x2="624" y1="127" y2="126" fill="#000" stroke="#000" stroke-width="1"/><line x1="629" x2="634" y1="125" y2="124" fill="#000" stroke="#000" stroke-width="1"/><line x1="639" x2="644" y1="123" y2="122" fill="#000" stroke="#000" stroke-width="1"/><line x1="649" x2="654" y1="121" y2="120" fill="#000" stroke="#000" stroke-width="1"/><line x1="659" x2="664" y1="119" y2="118" fill="#000" stroke="#000" stroke-width="1"/><line x1="669" x2="674" y1="117" y2="115" fill="#000" stroke="#000" stroke-width="1"/></svg>